<svg width="77" height="71" viewBox="0 0 77 71" fill="none" xmlns="http://www.w3.org/2000/svg">
<path d="M10.9356 43.8839C10.9356 47.0327 8.98177 49.1247 6.13215 49.1247C5.18837 49.1379 4.2698 48.8207 3.53517 48.2281V53.0549H0.202393V38.8041H3.30554L3.39713 39.5625C4.15555 38.9069 5.12937 38.5549 6.1317 38.574C8.98223 38.5973 10.9356 40.8041 10.9356 43.8839ZM7.57919 43.8839C7.57919 42.5279 6.75184 41.4478 5.51116 41.4478C4.03947 41.4478 3.39668 42.3897 3.39668 43.861C3.39668 45.3551 4.17808 46.2513 5.51116 46.2513C6.7523 46.2513 7.57919 45.3094 7.57919 43.8839Z" fill="white"/>
<path d="M20.107 38.6654L19.9002 41.3544C19.6959 41.315 19.488 41.2997 19.2801 41.3088C17.5106 41.3088 16.2918 42.2511 16.2918 43.5842V48.9161H12.959V38.8027H16.0621L16.1993 40.0442C16.7972 39.1247 17.7852 38.5731 19.2564 38.5731C19.5424 38.5714 19.8275 38.6021 20.1066 38.6645" fill="white"/>
<path d="M31.7151 43.8382C31.7151 46.9179 29.5081 49.1477 26.2674 49.1477C23.0033 49.1477 20.8433 46.9179 20.8433 43.8382C20.8433 40.8042 23.0037 38.5745 26.2674 38.5745C29.5081 38.5745 31.7151 40.8042 31.7151 43.8382ZM28.3591 43.8382C28.3591 42.4361 27.5314 41.4479 26.2674 41.4479C24.9805 41.4479 24.1993 42.4361 24.1993 43.8382C24.1993 45.2866 24.9805 46.2747 26.2674 46.2747C27.5318 46.2747 28.3591 45.2866 28.3591 43.8382Z" fill="white"/>
<path d="M41.3712 48.5258C40.4715 48.9677 39.4766 49.1807 38.4749 49.1462C35.9688 49.1462 34.338 47.8136 34.338 45.4461V41.5155H32.8896V38.8031H34.338V36.2061H37.6707V38.8031H40.7967V41.4926H37.6707V45.0092C37.6707 45.9287 38.2219 46.2504 39.0266 46.2504C39.5568 46.2552 40.0819 46.146 40.5662 45.9302L41.3712 48.5258Z" fill="white"/>
<path d="M52.54 44.7566H45.6444C45.9646 45.7219 46.8398 46.3656 48.2186 46.3656C49.0218 46.416 49.8197 46.2064 50.4944 45.7677L51.8507 47.9284C50.7375 48.7576 49.3769 49.1869 47.9894 49.1467C44.4728 49.1467 42.2437 46.9173 42.2437 43.8399C42.2437 40.6906 44.3341 38.5757 47.4587 38.5757C50.6313 38.5757 52.6312 40.4605 52.6312 43.8628C52.6296 44.1638 52.5989 44.4639 52.5396 44.759M45.644 42.7822H49.5745C49.3673 41.816 48.7698 41.3109 47.6669 41.3109C47.2085 41.2688 46.7506 41.3949 46.3784 41.6657C46.0062 41.9364 45.7451 42.3332 45.644 42.7822Z" fill="white"/>
<path d="M63.5494 43.0331V48.9162H60.3779L60.3551 48.3188C59.6097 48.8669 58.706 49.1572 57.7809 49.1458C55.4821 49.1458 53.8043 47.859 53.8043 45.7907C53.8043 43.5843 55.5285 42.4118 58.1503 42.4118C58.9107 42.3912 59.6606 42.5907 60.3104 42.986V42.8716C60.3104 41.7449 59.5757 41.1016 57.7366 41.1016C56.9263 41.0902 56.1218 41.2387 55.3689 41.5385L55.6436 38.9181C56.5723 38.6684 57.5316 38.5523 58.493 38.5732C61.8719 38.5732 63.5494 40.458 63.5494 43.0331ZM60.3086 45.7907C60.3086 45.2875 59.918 44.6182 58.7226 44.6182C57.7807 44.6182 57.1603 45.0757 57.1603 45.7907C57.1603 46.5058 57.7807 46.9394 58.7226 46.9394C59.7112 46.9394 60.3086 46.4568 60.3086 45.7907Z" fill="white"/>
<path d="M75.9159 42.7571V48.916H72.5599V42.8943C72.5599 42.0896 72.0081 41.4231 70.9052 41.4231C70.6979 41.4049 70.4892 41.43 70.2922 41.4968C70.0952 41.5636 69.9144 41.6707 69.761 41.8112C69.6076 41.9517 69.4848 42.1226 69.4009 42.313C69.3171 42.5034 69.2741 42.7091 69.2741 42.9171V48.916H65.9413V38.8026H69.0672L69.1588 39.6768C69.6872 39.0098 70.5598 38.573 71.8938 38.573C74.5367 38.573 75.9159 40.1371 75.9159 42.7571Z" fill="white"/>
<path d="M54.3492 16.2908C54.3492 19.5128 53.3935 22.6624 51.6035 25.3414C49.8134 28.0204 47.2691 30.1084 44.2924 31.3414C41.3156 32.5744 38.0402 32.897 34.8802 32.2684C31.7201 31.6399 28.8176 30.0883 26.5393 27.81C24.261 25.5317 22.7093 22.6289 22.0807 19.4688C21.4521 16.3088 21.7747 13.0333 23.0077 10.0565C24.2407 7.0798 26.3286 4.53557 29.0076 2.74552C31.6866 0.955478 34.8364 0 38.0584 0C42.3789 0.000121324 46.5224 1.71648 49.5775 4.77155C52.6325 7.82662 54.3491 11.9702 54.3492 16.2908Z" fill="#120F0E"/>
<path d="M38.2493 11.481C37.2833 11.481 36.3389 11.7673 35.5357 12.304C34.7326 12.8407 34.1068 13.6034 33.7371 14.4959C33.3674 15.3883 33.2708 16.3704 33.4592 17.3178C33.6477 18.2652 34.1129 19.1353 34.7959 19.8184C35.4789 20.5014 36.349 20.9666 37.2964 21.1551C38.2438 21.3435 39.2261 21.2468 40.1185 20.8772C41.011 20.5075 41.7736 19.8815 42.3103 19.0783C42.847 18.2752 43.1332 17.3308 43.1332 16.3649C43.1332 15.0695 42.6186 13.8273 41.7027 12.9113C40.7868 11.9954 39.5446 11.481 38.2493 11.481ZM38.2493 18.779C37.7718 18.779 37.3051 18.6374 36.9082 18.3721C36.5112 18.1069 36.2018 17.7299 36.0191 17.2888C35.8364 16.8476 35.7884 16.3623 35.8815 15.894C35.9747 15.4257 36.2046 14.9956 36.5423 14.6579C36.8799 14.3203 37.3101 14.0903 37.7784 13.9972C38.2467 13.904 38.7321 13.9518 39.1732 14.1346C39.6143 14.3173 39.9913 14.6267 40.2566 15.0237C40.5218 15.4207 40.6636 15.8874 40.6636 16.3649C40.6636 17.0051 40.4091 17.6192 39.9564 18.0719C39.5036 18.5246 38.8896 18.779 38.2493 18.779Z" fill="#F01604"/>
<path d="M42.2432 2.12032C41.7221 1.58996 41.1003 1.1687 40.4147 0.881141C39.729 0.593584 38.9932 0.445557 38.2497 0.445557C37.5062 0.445557 36.7699 0.593584 36.0843 0.881141C35.3986 1.1687 34.7773 1.58996 34.2562 2.12032H42.2432Z" fill="#F56106"/>
<path d="M52.259 20.2698C52.7894 19.7487 53.2108 19.1271 53.4983 18.4414C53.7859 17.7558 53.9339 17.0198 53.9339 16.2762C53.9339 15.5327 53.7859 14.7966 53.4983 14.1109C53.2108 13.4253 52.7894 12.8038 52.259 12.2827V20.2698Z" fill="#FED00F"/>
<path d="M24.0568 12.2832C23.5266 12.8044 23.1055 13.4259 22.818 14.1115C22.5305 14.7972 22.3824 15.5332 22.3824 16.2767C22.3824 17.0202 22.5305 17.7563 22.818 18.4419C23.1055 19.1276 23.5266 19.7491 24.0568 20.2703V12.2832Z" fill="#560E77"/>
<path d="M34.2562 30.3591C34.7773 30.8895 35.3986 31.3108 36.0843 31.5983C36.7699 31.8859 37.5062 32.034 38.2497 32.034C38.9932 32.034 39.729 31.8859 40.4147 31.5983C41.1003 31.3108 41.7221 30.8895 42.2432 30.3591H34.2562Z" fill="#457EB8"/>
<path d="M42.9822 4.96501C42.478 4.16564 41.7797 3.50701 40.9521 3.05055C40.1246 2.5941 39.1952 2.35474 38.2502 2.35474C37.3051 2.35474 36.3753 2.5941 35.5477 3.05055C34.7202 3.50701 34.0218 4.16564 33.5177 4.96501H42.9822Z" fill="#457EB8"/>
<path d="M49.4141 21.0101C50.2135 20.5059 50.8723 19.8075 51.3288 18.9799C51.7854 18.1523 52.0244 17.2226 52.0244 16.2775C52.0244 15.3324 51.7854 14.4027 51.3288 13.5751C50.8723 12.7475 50.2135 12.049 49.4141 11.5449V21.0101Z" fill="#560E77"/>
<path d="M26.9013 11.5439C26.1018 12.0481 25.443 12.7465 24.9865 13.5741C24.53 14.4017 24.2905 15.3314 24.2905 16.2765C24.2905 17.2217 24.53 18.1514 24.9865 18.9789C25.443 19.8065 26.1018 20.505 26.9013 21.0091V11.5439Z" fill="#FED00F"/>
<path d="M33.5168 27.5149C34.0209 28.3143 34.7193 28.9729 35.5468 29.4293C36.3744 29.8858 37.3042 30.1252 38.2492 30.1252C39.1943 30.1252 40.1237 29.8858 40.9512 29.4293C41.7787 28.9729 42.4771 28.3143 42.9813 27.5149H33.5168Z" fill="#4B9C24"/>
<path d="M32.6881 24.1926C32.0402 24.1539 31.4264 23.8888 30.9542 23.4435C30.482 22.9982 30.1816 22.4011 30.1049 21.7566H27.2658C27.3468 23.1507 27.9458 24.4643 28.9456 25.4393C29.9454 26.4143 31.2735 26.9803 32.6693 27.0263L32.6881 24.1926Z" fill="#560E77"/>
<path d="M46.1287 21.6802C46.0901 22.3281 45.8251 22.9418 45.3799 23.4141C44.9347 23.8864 44.3379 24.1872 43.6934 24.264V27.1031C45.0876 27.0221 46.401 26.4229 47.376 25.4231C48.351 24.4233 48.9169 23.0951 48.9629 21.6994L46.1287 21.6802Z" fill="#F56106"/>
<path d="M43.5397 8.18423C44.1877 8.22284 44.8013 8.4879 45.2736 8.93321C45.7458 9.37852 46.0463 9.97571 46.1229 10.6203H48.962C48.8811 9.22607 48.282 7.91248 47.2822 6.93745C46.2824 5.96243 44.9543 5.39641 43.5585 5.35059L43.5397 8.18423Z" fill="#FED00F"/>
<path d="M30.0987 10.6968C30.1374 10.0488 30.4026 9.43509 30.8479 8.9628C31.2932 8.4905 31.8903 8.18969 32.5348 8.11296V5.27295C31.1406 5.35382 29.8273 5.95292 28.8522 6.95274C27.8772 7.95257 27.3112 9.28087 27.2654 10.6767L30.0987 10.6968Z" fill="#F01604"/>
<path d="M27.0572 5.98828L26.9469 10.5717L24.3043 10.6678L24.3597 9.31916C24.9664 8.00042 25.8946 6.8551 27.059 5.98828" fill="#FED00F"/>
<path d="M49.2626 5.95142L49.3734 10.5353L52.0151 10.6314L51.9592 9.28274C51.3526 7.96386 50.4248 6.81841 49.2604 5.95142" fill="#457EB8"/>
<path d="M49.2626 26.1566L49.3734 21.5731L52.0151 21.4771L51.9592 22.8257C51.3525 24.1444 50.4247 25.2897 49.2604 26.1566" fill="#FED00F"/>
<path d="M27.0572 26.1932L26.9469 21.6097L24.3043 21.5137L24.3597 22.8623C24.9664 24.1811 25.8946 25.3264 27.059 26.1932" fill="#457EB8"/>
<path d="M28.0342 4.98321C28.0342 4.98321 30.099 2.68481 31.4197 2.34033H32.9472L32.9329 4.98321H28.0342Z" fill="#4B9C24"/>
<path d="M48.5469 5.05683C48.5469 5.05683 46.4826 2.75854 45.1619 2.41406H43.634L43.6478 5.05683H48.5469Z" fill="#560E77"/>
<path d="M48.5469 27.2991C48.5469 27.2991 46.4826 29.5975 45.1619 29.942H43.634L43.6478 27.2991H48.5469Z" fill="#F01604"/>
<path d="M28.0342 27.2258C28.0342 27.2258 30.099 29.5241 31.4197 29.8686H32.9472L32.9329 27.2258H28.0342Z" fill="#F56106"/>
<path d="M35.801 16.5693H33.4025V26.1004H35.801V16.5693Z" fill="#F01604"/>
<path d="M35.4861 10.5989C35.5247 9.89213 35.8326 9.22704 36.3465 8.74039C36.8605 8.25373 37.5414 7.98258 38.2493 7.98258C38.9571 7.98258 39.638 8.25373 40.152 8.74039C40.6659 9.22704 40.9738 9.89213 41.0124 10.5989H43.8489C43.8139 9.13741 43.2088 7.74759 42.1628 6.72631C41.1168 5.70503 39.7129 5.1333 38.251 5.1333C36.7891 5.1333 35.3853 5.70503 34.3393 6.72631C33.2933 7.74759 32.6877 9.13741 32.6528 10.5989H35.4861Z" fill="#F56106"/>
<path d="M43.7801 13.5133C44.4868 13.5519 45.1519 13.8598 45.6386 14.3738C46.1252 14.8877 46.3967 15.5687 46.3967 16.2765C46.3967 16.9843 46.1252 17.6651 45.6386 18.1791C45.1519 18.693 44.4868 19.001 43.7801 19.0396V21.876C45.2399 21.8386 46.6274 21.2325 47.6467 20.1868C48.666 19.1411 49.2367 17.7386 49.2367 16.2783C49.2367 14.818 48.666 13.4155 47.6467 12.3698C46.6274 11.3241 45.2399 10.718 43.7801 10.6807V13.5133Z" fill="#4B9C24"/>
<path d="M32.5353 19.0397C31.8286 19.0011 31.1635 18.6931 30.6768 18.1791C30.1902 17.6652 29.9191 16.9843 29.9191 16.2765C29.9191 15.5687 30.1902 14.8877 30.6768 14.3738C31.1635 13.8598 31.8286 13.5519 32.5353 13.5133V10.677C31.0755 10.7143 29.6879 11.3205 28.6687 12.3662C27.6494 13.4119 27.0791 14.8144 27.0791 16.2747C27.0791 17.735 27.6494 19.1374 28.6687 20.1831C29.6879 21.2288 31.0755 21.835 32.5353 21.8723V19.0397Z" fill="#457EB8"/>
<path d="M40.8976 21.6802C40.859 22.3282 40.5937 22.9419 40.1484 23.4142C39.7031 23.8866 39.1061 24.1873 38.4615 24.264V27.1031C39.8557 27.0221 41.1694 26.4229 42.1445 25.4231C43.1196 24.4233 43.6858 23.0952 43.7318 21.6994L40.8976 21.6802Z" fill="#FED00F"/>
<path d="M0 58.5795C6.3429 58.305 12.6856 58.1541 19.0313 58.0493C22.2025 57.9848 25.3741 57.9665 28.5467 57.9262L38.0621 57.8745L47.5775 57.8924C50.7496 57.9226 53.9207 57.9285 57.0933 57.9839C63.4362 58.0667 69.7798 58.1957 76.1241 58.4514C69.7812 58.7291 63.4389 58.8792 57.0933 58.9839C53.9221 59.0489 50.7505 59.0654 47.5775 59.1065L38.0621 59.1559L28.5467 59.1371C25.375 59.1074 22.2038 59.1001 19.0313 59.0457C12.6879 58.962 6.34427 58.8338 0 58.5795Z" fill="#EE001E"/>
<path d="M9.3783 70.9071V64.582H10.7199V70.9071H9.3783Z" fill="white"/>
<path d="M16.6728 70.9069H15.3531V68.0819C15.3721 67.8074 15.3072 67.5335 15.1673 67.2964C15.098 67.2066 15.0072 67.1356 14.9032 67.0899C14.7993 67.0443 14.6857 67.0254 14.5726 67.0352C14.4186 67.0222 14.264 67.0495 14.1237 67.1143C13.9833 67.1791 13.8621 67.2792 13.7721 67.4049C13.5778 67.783 13.4924 68.2076 13.5255 68.6313V70.9069H12.2057V66.0713H13.2145L13.3914 66.6903H13.4656C13.6114 66.4575 13.8228 66.2731 14.0732 66.1601C14.3499 66.0367 14.6503 65.9754 14.9533 65.9808C15.1868 65.9643 15.4212 65.9965 15.6417 66.0752C15.8622 66.154 16.0639 66.2775 16.2341 66.4382C16.5468 66.8032 16.7038 67.2764 16.6711 67.7558L16.6728 70.9069Z" fill="white"/>
<path d="M20.0691 69.9422C20.3517 69.9334 20.6316 69.8824 20.8991 69.7909V70.7735C20.5155 70.9309 20.1029 71.006 19.6884 70.994C19.4788 71.0128 19.2676 70.9868 19.0688 70.9178C18.8699 70.8488 18.6882 70.7383 18.5353 70.5937C18.2704 70.2521 18.1418 69.8243 18.1744 69.3933V67.0602H17.5427V66.5021L18.2691 66.0611L18.6497 65.0396H19.4941V66.0693H20.8477V67.0602H19.4941V69.3933C19.4876 69.4698 19.4986 69.5468 19.5258 69.6187C19.553 69.6905 19.5957 69.7552 19.6513 69.8082C19.7698 69.9018 19.9182 69.9494 20.0691 69.9422Z" fill="white"/>
<path d="M24.0668 70.994C23.7348 71.0135 23.4024 70.9666 23.0888 70.8559C22.7752 70.7452 22.4866 70.573 22.2404 70.3495C22.012 70.1061 21.8357 69.8185 21.7226 69.5044C21.6096 69.1903 21.5623 68.8564 21.5833 68.5233C21.5396 67.842 21.7574 67.1697 22.1922 66.6434C22.4078 66.4181 22.6692 66.2421 22.9593 66.1275C23.2493 66.013 23.561 65.9625 23.8724 65.9797C24.1642 65.9621 24.4565 66.0049 24.7311 66.1053C25.0056 66.2057 25.2562 66.3617 25.4678 66.5633C25.6658 66.7807 25.8186 67.0355 25.9168 67.3127C26.015 67.5898 26.0567 67.8838 26.0396 68.1774V68.8178H22.9199C22.9156 69.1421 23.0346 69.4561 23.2532 69.6958C23.3697 69.8051 23.5073 69.8895 23.6575 69.9438C23.8078 69.9981 23.9676 70.0211 24.1271 70.0114C24.4052 70.0128 24.6829 69.9822 24.954 69.9199C25.2346 69.8517 25.5071 69.7545 25.7676 69.6299V70.6514C25.5328 70.7678 25.2841 70.8542 25.0277 70.9085C24.7112 70.9701 24.3892 70.9988 24.0668 70.994ZM23.88 66.9184C23.7576 66.912 23.6353 66.9326 23.5217 66.9786C23.4081 67.0246 23.3063 67.0949 23.2228 67.1847C23.0498 67.3987 22.9529 67.6643 22.9481 67.9395H24.8008C24.8124 67.6647 24.7213 67.3956 24.5448 67.1847C24.4595 67.0954 24.3561 67.0253 24.2414 66.9794C24.1268 66.9335 24.0034 66.9127 23.88 66.9184Z" fill="white"/>
<path d="M29.8119 65.9801C29.9615 65.9773 30.1113 65.9904 30.2582 66.019L30.1585 67.2541C30.0311 67.2232 29.9 67.2088 29.769 67.2111C29.4114 67.1893 29.0589 67.3054 28.7843 67.5355C28.6638 67.6529 28.57 67.7948 28.5091 67.9516C28.4483 68.1085 28.4221 68.2766 28.4318 68.4445V70.9058H27.1121V66.0716H28.112L28.3067 66.8854H28.3724C28.517 66.6195 28.7259 66.394 28.98 66.2294C29.2267 66.0661 29.516 65.9794 29.8119 65.9801Z" fill="white"/>
<path d="M35.6009 70.9069H34.2812V68.0819C34.3001 67.8074 34.2353 67.5335 34.0953 67.2964C34.026 67.2066 33.9352 67.1356 33.8313 67.0899C33.7274 67.0443 33.6138 67.0254 33.5007 67.0352C33.3467 67.0222 33.192 67.0495 33.0517 67.1143C32.9114 67.1791 32.7901 67.2792 32.7001 67.4049C32.5059 67.783 32.4205 68.2076 32.4535 68.6313V70.9069H31.1338V66.0713H32.1426L32.3195 66.6903H32.3936C32.5394 66.4575 32.7509 66.2731 33.0012 66.1601C33.278 66.0367 33.5783 65.9754 33.8813 65.9808C34.1149 65.9643 34.3493 65.9965 34.5698 66.0752C34.7903 66.154 34.9919 66.2775 35.1622 66.4382C35.4749 66.8032 35.6318 67.2764 35.5991 67.7558L35.6009 70.9069Z" fill="white"/>
<path d="M40.0316 70.907L39.7751 70.2496H39.7403C39.5603 70.4946 39.3252 70.6939 39.0541 70.8315C38.7626 70.9504 38.4492 71.0058 38.1347 70.9938C37.9342 71.0052 37.7337 70.9758 37.5449 70.9074C37.3562 70.839 37.1831 70.7331 37.0365 70.5959C36.8966 70.4438 36.789 70.2648 36.7202 70.0699C36.6514 69.8749 36.6228 69.6681 36.6363 69.4618C36.6204 69.2422 36.6616 69.0222 36.756 68.8232C36.8503 68.6242 36.9949 68.453 37.175 68.3263C37.6696 68.0461 38.2312 67.9064 38.7994 67.922L39.6384 67.8958V67.6841C39.6517 67.5829 39.641 67.48 39.6076 67.3835C39.5742 67.2871 39.5188 67.1997 39.4459 67.1283C39.3729 67.057 39.2844 67.0036 39.1872 66.9724C39.0901 66.9412 38.987 66.9329 38.8861 66.9484C38.4122 66.9697 37.9481 67.089 37.5226 67.2989L37.0857 66.4073C37.6581 66.1124 38.2941 65.9623 38.9379 65.9703C39.4695 65.9353 39.9967 66.0851 40.4305 66.3944C40.6104 66.555 40.7511 66.7549 40.8411 66.9785C40.9311 67.2022 40.9682 67.4437 40.9497 67.6841V70.907H40.0316ZM39.6411 68.6654L39.1309 68.6822C38.8317 68.6717 38.5353 68.7436 38.274 68.89C38.1811 68.9541 38.1066 69.0413 38.0574 69.1429C38.0081 69.2446 37.9862 69.3572 37.9935 69.47C37.9935 69.8417 38.2067 70.0279 38.6337 70.0282C38.7671 70.0345 38.9003 70.0143 39.0259 69.9689C39.1515 69.9235 39.2673 69.8538 39.3659 69.7637C39.4582 69.6727 39.5299 69.5634 39.5772 69.4427C39.6245 69.3221 39.6461 69.1928 39.6402 69.0633L39.6411 68.6654Z" fill="white"/>
<path d="M44.3483 69.9422C44.6314 69.9333 44.9117 69.8824 45.1797 69.7909V70.7735C44.7956 70.9309 44.3826 71.006 43.9677 70.994C43.7582 71.013 43.5472 70.9872 43.3485 70.9182C43.1498 70.8491 42.9681 70.7385 42.8155 70.5937C42.5498 70.2525 42.4208 69.8245 42.4536 69.3933V67.0602H41.821V66.5021L42.5493 66.0611L42.9299 65.0396H43.7729V66.0693H45.1275V67.0602H43.7729V69.3933C43.7667 69.4699 43.7777 69.5469 43.8051 69.6187C43.8325 69.6905 43.8754 69.7552 43.9311 69.8082C44.0494 69.9018 44.1976 69.9495 44.3483 69.9422Z" fill="white"/>
<path d="M46.1005 64.82C46.1005 64.3899 46.3402 64.175 46.8194 64.1753C47.2985 64.1756 47.5374 64.3905 47.5368 64.82C47.542 64.9078 47.5289 64.9957 47.498 65.0781C47.467 65.1604 47.419 65.2353 47.3572 65.298C47.2067 65.4227 47.0138 65.484 46.8189 65.4691C46.3401 65.4691 46.1005 65.2527 46.1005 64.82ZM47.4765 70.9071H46.1568V66.0715H47.4765V70.9071Z" fill="white"/>
<path d="M53.2566 68.48C53.2967 69.1533 53.0737 69.8157 52.6342 70.3273C52.409 70.5552 52.1377 70.7326 51.8386 70.8475C51.5395 70.9624 51.2194 71.0123 50.8995 70.9938C50.47 71.0027 50.0456 70.8974 49.67 70.6887C49.3156 70.4855 49.0307 70.1802 48.8525 69.8126C48.6542 69.3969 48.5563 68.9405 48.5666 68.48C48.5251 67.8086 48.7475 67.1474 49.1862 66.6373C49.4131 66.4111 49.6854 66.2356 49.985 66.1222C50.2846 66.0088 50.6047 65.9602 50.9245 65.9795C51.3536 65.9706 51.7772 66.075 52.1531 66.2822C52.5069 66.4833 52.7921 66.7862 52.9715 67.1515C53.1698 67.5657 53.2675 68.0209 53.2566 68.48ZM49.9122 68.48C49.8883 68.857 49.9699 69.2331 50.1481 69.5661C50.2322 69.6897 50.3477 69.7886 50.4827 69.8529C50.6176 69.9172 50.7675 69.9445 50.9165 69.932C51.0641 69.9443 51.2123 69.9169 51.3458 69.8526C51.4793 69.7882 51.5928 69.6893 51.6751 69.5661C51.8508 69.2315 51.9314 68.8549 51.9074 68.4777C51.9318 68.1038 51.8505 67.7305 51.6733 67.4004C51.5802 67.2882 51.4638 67.1978 51.332 67.1358C51.2001 67.0737 51.056 67.0414 50.9102 67.0412C50.7645 67.0409 50.6205 67.0729 50.4885 67.1345C50.3564 67.1962 50.2396 67.2862 50.1463 67.3981C49.9675 67.7294 49.8865 68.1045 49.9122 68.48Z" fill="white"/>
<path d="M58.8124 70.9069H57.4932V68.0819C57.5118 67.8073 57.4468 67.5335 57.3069 67.2964C57.2375 67.2066 57.1467 67.1357 57.0428 67.09C56.9389 67.0444 56.8253 67.0255 56.7122 67.0352C56.5582 67.0221 56.4032 67.0494 56.2628 67.1142C56.1224 67.179 56.0016 67.2792 55.9117 67.4049C55.7174 67.783 55.632 68.2076 55.665 68.6313V70.9069H54.3453V66.0713H55.3519L55.5292 66.6903H55.6034C55.7489 66.4573 55.9604 66.2727 56.211 66.1601C56.4875 66.0366 56.7878 65.9754 57.0906 65.9808C57.3242 65.9643 57.5586 65.9965 57.7791 66.0752C57.9996 66.154 58.2017 66.2775 58.3719 66.4382C58.6846 66.8032 58.8416 67.2764 58.8089 67.7558L58.8124 70.9069Z" fill="white"/>
<path d="M63.2426 70.907L62.987 70.2496H62.9522C62.7719 70.4944 62.5369 70.6937 62.266 70.8315C61.9745 70.9505 61.6611 71.0059 61.3465 70.9939C61.1461 71.0052 60.9455 70.9758 60.7568 70.9074C60.5681 70.839 60.395 70.733 60.2484 70.5959C60.1085 70.4438 60.0009 70.2648 59.9321 70.0699C59.8633 69.8749 59.8347 69.6681 59.8481 69.4618C59.8323 69.2421 59.8738 69.022 59.9683 68.823C60.0628 68.624 60.2071 68.4529 60.3874 68.3263C60.8817 68.046 61.4437 67.9062 62.0118 67.922L62.8508 67.8959V67.6841C62.864 67.5829 62.8533 67.4799 62.8199 67.3834C62.7865 67.2869 62.7312 67.1995 62.6582 67.1281C62.5852 67.0567 62.4968 67.0034 62.3995 66.9722C62.3023 66.941 62.1989 66.9328 62.098 66.9484C61.6242 66.9697 61.1603 67.0891 60.7349 67.2989L60.298 66.4073C60.8704 66.1124 61.5064 65.9623 62.1503 65.9704C62.6817 65.9352 63.2088 66.0851 63.6424 66.3944C63.8226 66.5548 63.9633 66.7546 64.0534 66.9783C64.1436 67.202 64.1806 67.4436 64.162 67.6841V70.907H63.2426ZM62.853 68.6654L62.3428 68.6823C62.0436 68.6717 61.7472 68.7436 61.4859 68.89C61.3928 68.9541 61.3181 69.0412 61.2688 69.1429C61.2195 69.2445 61.1972 69.3572 61.2045 69.47C61.2045 69.8418 61.4181 70.0279 61.8451 70.0282C61.9785 70.0345 62.1118 70.0143 62.2374 69.9689C62.363 69.9235 62.4783 69.8538 62.5769 69.7637C62.6692 69.6727 62.7414 69.5634 62.7887 69.4427C62.836 69.3221 62.8575 69.1928 62.8517 69.0633L62.853 68.6654Z" fill="white"/>
<path d="M66.8415 70.9071H65.5218V64.1753H66.8415V70.9071Z" fill="white"/>
</svg>
